<svg width="613" height="100" viewBox="0 0 613 100" fill="none" xmlns="http://www.w3.org/2000/svg">
<rect x="339" width="274" height="100" rx="2" fill="#00FF88"/>
<path d="M548.642 86.3C536.042 86.3 527.942 79.5 527.642 70.2H541.142C541.242 73.1 543.642 74.9 548.542 74.9C553.842 74.9 555.942 72.8 555.942 70.3C555.942 66.8 551.942 66.4 546.942 65.7C539.742 64.7 528.542 63.2 528.542 51.2C528.542 41.1 536.342 34.3 548.542 34.3C560.742 34.3 568.242 41.3 568.542 50.1H555.242C554.942 47.4 552.542 45.7 548.742 45.7C544.242 45.7 542.242 47.9 542.242 50.4C542.242 53.7 546.242 54.2 551.242 54.9C558.042 55.9 569.542 57.5 569.542 69.5C569.542 79.6 561.342 86.3 548.642 86.3Z" fill="#020202"/>
<path d="M495.102 86.3C479.802 86.3 468.802 76.2 468.802 59.8V14H482.302V41.9C485.602 36.9 491.002 34.3 497.502 34.3C509.102 34.3 521.802 42.7 521.802 59.7C521.802 75.6 510.802 86.3 495.102 86.3ZM495.202 73.7C502.902 73.7 508.102 68.2 508.102 60.3C508.102 52.4 502.902 46.9 495.202 46.9C487.502 46.9 482.302 52.4 482.302 60.3C482.302 68.2 487.502 73.7 495.202 73.7Z" fill="#020202"/>
<path d="M430.163 86.3C418.763 86.3 405.963 77.9 405.963 60.9C405.963 45 416.963 34.3 432.663 34.3C448.163 34.3 458.963 44.7 458.963 60.8V85H446.563V76.1C443.763 82.8 437.663 86.3 430.163 86.3ZM432.563 73.7C440.263 73.7 445.463 68.2 445.463 60.3C445.463 52.4 440.263 46.9 432.563 46.9C424.863 46.9 419.663 52.4 419.663 60.3C419.663 68.2 424.863 73.7 432.563 73.7Z" fill="#020202"/>
<path d="M383 85V14H396.5V85H383Z" fill="#020202"/>
<path d="M318.497 33.3366V44.7003H285.649V33.3366H318.497ZM293.107 20.2684H308.235V71.1207C308.235 72.5175 308.448 73.6065 308.874 74.3878C309.3 75.1453 309.892 75.678 310.649 75.9858C311.431 76.2935 312.33 76.4474 313.348 76.4474C314.059 76.4474 314.769 76.3882 315.479 76.2699C316.189 76.1278 316.734 76.0213 317.112 75.9503L319.492 87.2074C318.734 87.4441 317.669 87.7164 316.296 88.0241C314.923 88.3556 313.254 88.5568 311.289 88.6278C307.643 88.7699 304.447 88.2845 301.701 87.1718C298.978 86.0592 296.859 84.3309 295.344 81.9872C293.829 79.6434 293.083 76.6842 293.107 73.1093V20.2684Z" fill="#020202"/>
<path d="M283.243 33.3366V44.7003H249.578V33.3366H283.243ZM257.284 87.8821V29.3949C257.284 25.4413 258.054 22.1624 259.592 19.5582C261.155 16.9541 263.286 15.0009 265.984 13.6989C268.683 12.3968 271.749 11.7457 275.182 11.7457C277.502 11.7457 279.621 11.9233 281.538 12.2784C283.48 12.6335 284.924 12.9531 285.871 13.2372L283.172 24.6008C282.58 24.4114 281.846 24.2339 280.97 24.0682C280.118 23.9025 279.242 23.8196 278.342 23.8196C276.117 23.8196 274.566 24.3404 273.69 25.3821C272.814 26.4001 272.376 27.8324 272.376 29.679V87.8821H257.284Z" fill="#020202"/>
<path d="M229.664 87.8821V33.3367H244.792V87.8821H229.664ZM237.264 26.3054C235.015 26.3054 233.085 25.5597 231.475 24.0682C229.889 22.553 229.096 20.742 229.096 18.6349C229.096 16.5516 229.889 14.7642 231.475 13.2727C233.085 11.7576 235.015 11 237.264 11C239.513 11 241.43 11.7576 243.017 13.2727C244.626 14.7642 245.431 16.5516 245.431 18.6349C245.431 20.742 244.626 22.553 243.017 24.0682C241.43 25.5597 239.513 26.3054 237.264 26.3054Z" fill="#020202"/>
<path d="M220.546 15.1548V87.8821H205.418V15.1548H220.546Z" fill="#020202"/>
<path d="M173.511 88.9474C167.9 88.9474 163.07 87.8111 159.022 85.5383C154.997 83.2419 151.896 79.9986 149.718 75.8082C147.54 71.5942 146.451 66.6108 146.451 60.8579C146.451 55.2471 147.54 50.3229 149.718 46.0852C151.896 41.8475 154.962 38.545 158.915 36.1775C162.893 33.8101 167.557 32.6264 172.907 32.6264C176.505 32.6264 179.855 33.2064 182.957 34.3665C186.082 35.5028 188.804 37.2192 191.124 39.5156C193.468 41.812 195.291 44.7003 196.593 48.1804C197.895 51.6368 198.546 55.6851 198.546 60.3253V64.4801H152.488V55.1051H184.306C184.306 52.9271 183.833 50.9976 182.886 49.3167C181.939 47.6359 180.625 46.3219 178.944 45.375C177.287 44.4043 175.357 43.919 173.155 43.919C170.859 43.919 168.823 44.4517 167.048 45.517C165.296 46.5587 163.923 47.9673 162.928 49.7429C161.934 51.4948 161.425 53.4479 161.401 55.6023V64.5156C161.401 67.2145 161.898 69.5464 162.893 71.5113C163.911 73.4763 165.343 74.9915 167.19 76.0568C169.036 77.1221 171.226 77.6548 173.759 77.6548C175.44 77.6548 176.979 77.4181 178.376 76.9446C179.772 76.4711 180.968 75.7609 181.962 74.8139C182.957 73.8669 183.714 72.7069 184.235 71.3338L198.227 72.2571C197.516 75.6188 196.06 78.5544 193.859 81.0639C191.681 83.5497 188.863 85.491 185.407 86.8878C181.974 88.2609 178.009 88.9474 173.511 88.9474Z" fill="#020202"/>
<path d="M117.606 88.9474C112.019 88.9474 107.213 87.7637 103.188 85.3963C99.1876 83.0052 96.1099 79.6908 93.9555 75.4531C91.8249 71.2154 90.7595 66.3385 90.7595 60.8224C90.7595 55.2353 91.8367 50.3347 93.9911 46.1207C96.1691 41.883 99.2586 38.5805 103.26 36.213C107.26 33.822 112.019 32.6264 117.535 32.6264C122.294 32.6264 126.46 33.4905 130.035 35.2187C133.61 36.9469 136.439 39.3736 138.522 42.4986C140.606 45.6236 141.754 49.2931 141.967 53.5071H127.691C127.289 50.7845 126.224 48.5947 124.495 46.9375C122.791 45.2566 120.554 44.4162 117.784 44.4162C115.44 44.4162 113.392 45.0554 111.64 46.3338C109.912 47.5885 108.563 49.4233 107.592 51.8381C106.621 54.2528 106.136 57.1766 106.136 60.6094C106.136 64.0895 106.609 67.0487 107.556 69.4872C108.527 71.9256 109.888 73.7841 111.64 75.0625C113.392 76.3409 115.44 76.9801 117.784 76.9801C119.512 76.9801 121.063 76.625 122.436 75.9148C123.832 75.2045 124.981 74.1747 125.88 72.8253C126.804 71.4522 127.407 69.8068 127.691 67.8892H141.967C141.73 72.0559 140.594 75.7254 138.558 78.8977C136.546 82.0464 133.764 84.5085 130.213 86.2841C126.662 88.0596 122.459 88.9474 117.606 88.9474Z" fill="#020202"/>
<path d="M53.5074 88.9119C50.0273 88.9119 46.926 88.3082 44.2034 87.1008C41.4809 85.8698 39.3265 84.0587 37.7404 81.6676C36.1779 79.2528 35.3966 76.2462 35.3966 72.6477C35.3966 69.6174 35.9529 67.0724 37.0656 65.0128C38.1783 62.9531 39.6935 61.2959 41.6111 60.0412C43.5287 58.7864 45.7067 57.8395 48.1452 57.2003C50.6073 56.5611 53.1878 56.1113 55.8867 55.8508C59.059 55.5194 61.6158 55.2116 63.5571 54.9275C65.4984 54.6198 66.907 54.17 67.783 53.5781C68.6589 52.9862 69.0969 52.1103 69.0969 50.9503V50.7372C69.0969 48.4881 68.3867 46.7481 66.9662 45.517C65.5694 44.286 63.5808 43.6704 61.0003 43.6704C58.2778 43.6704 56.1116 44.2741 54.5017 45.4815C52.8919 46.6652 51.8265 48.1567 51.3057 49.9559L37.3142 48.8196C38.0244 45.5052 39.4212 42.6406 41.5046 40.2258C43.5879 37.7874 46.2749 35.9171 49.5656 34.615C52.88 33.2893 56.7153 32.6264 61.0713 32.6264C64.1016 32.6264 67.0017 32.9815 69.7716 33.6917C72.5652 34.402 75.0391 35.5028 77.1935 36.9943C79.3715 38.4858 81.0879 40.4034 82.3426 42.7471C83.5974 45.0672 84.2247 47.8489 84.2247 51.0923V87.8821H69.8781V80.3182H69.452C68.5761 82.0227 67.4042 83.526 65.9364 84.8281C64.4686 86.1065 62.7048 87.1127 60.6452 87.8466C58.5855 88.5568 56.2063 88.9119 53.5074 88.9119ZM57.8398 78.4716C60.0652 78.4716 62.0301 78.0336 63.7347 77.1576C65.4392 76.258 66.7768 75.0506 67.7475 73.5355C68.7181 72.0203 69.2034 70.304 69.2034 68.3863V62.598C68.7299 62.9058 68.0789 63.1899 67.2503 63.4503C66.4454 63.687 65.5339 63.9119 64.5159 64.125C63.4979 64.3144 62.4799 64.4919 61.4619 64.6576C60.444 64.7997 59.5207 64.9299 58.6921 65.0483C56.9165 65.3087 55.3658 65.723 54.0401 66.2912C52.7143 66.8594 51.6845 67.6288 50.9506 68.5994C50.2167 69.5464 49.8497 70.7301 49.8497 72.1505C49.8497 74.2102 50.5955 75.7845 52.0869 76.8736C53.6021 77.9389 55.5197 78.4716 57.8398 78.4716Z" fill="#020202"/>
<path d="M33.6648 33.3366V44.7003H0V33.3366H33.6648ZM7.70597 87.8821V29.3949C7.70597 25.4413 8.47538 22.1624 10.0142 19.5582C11.5767 16.9541 13.7074 15.0009 16.4062 13.6989C19.1051 12.3968 22.1709 11.7457 25.6037 11.7457C27.9238 11.7457 30.0426 11.9233 31.9602 12.2784C33.9015 12.6335 35.3456 12.9531 36.2926 13.2372L33.5938 24.6008C33.0019 24.4114 32.268 24.2339 31.392 24.0682C30.5398 23.9025 29.6638 23.8196 28.7642 23.8196C26.5388 23.8196 24.9882 24.3404 24.1122 25.3821C23.2363 26.4001 22.7983 27.8324 22.7983 29.679V87.8821H7.70597Z" fill="#020202"/>
</svg>
