<svg width="95" height="48" viewBox="0 0 95 48" fill="none" xmlns="http://www.w3.org/2000/svg">
<path d="M16.983 20.526H12.447C11.934 18.717 10.638 17.745 8.802 17.745C6.021 17.745 4.428 20.067 4.428 23.847C4.428 27.654 5.994 29.895 8.802 29.895C10.53 29.895 11.88 28.977 12.393 27.249H16.983C16.038 31.299 12.771 33.432 8.856 33.432C3.375 33.432 0 29.787 0 23.847C0 17.907 3.375 14.208 8.91 14.208C12.852 14.208 16.2 16.341 16.983 20.526Z" fill="#0A0D12"/>
<path d="M25.1442 33.432C20.7432 33.432 18.0162 30.516 18.0162 25.737C18.0162 20.796 20.8242 18.015 25.1442 18.015C29.5452 18.015 32.2992 20.985 32.2992 25.737C32.2992 30.651 29.4642 33.432 25.1442 33.432ZM25.1442 30.084C27.0612 30.084 28.0602 28.572 28.0602 25.737C28.0602 22.929 27.0342 21.363 25.1442 21.363C23.2542 21.363 22.2552 22.902 22.2552 25.737C22.2552 28.545 23.2812 30.084 25.1442 30.084Z" fill="#0A0D12"/>
<path d="M33.9439 33V18.474H38.0748V20.499C38.9928 18.771 40.3969 18.015 41.8819 18.015C42.4759 18.015 43.0159 18.177 43.3129 18.474V21.957C42.8269 21.849 42.3139 21.795 41.6659 21.795C39.1819 21.795 38.0748 23.199 38.0748 25.494V33H33.9439Z" fill="#0A0D12"/>
<path d="M57.8507 28.221C57.0947 31.569 54.3947 33.432 50.8307 33.432C46.3217 33.432 43.5407 30.516 43.5407 25.737C43.5407 20.796 46.3487 18.015 50.6687 18.015C55.0157 18.015 57.7427 20.904 57.7427 25.656V26.574H47.7527C47.9687 28.896 49.0487 30.138 50.8307 30.138C52.1807 30.138 53.0987 29.544 53.5307 28.221H57.8507ZM50.6687 21.309C49.1297 21.309 48.1577 22.308 47.8337 24.198H53.4767C53.1527 22.308 52.1807 21.309 50.6687 21.309Z" fill="#0A0D12"/>
<path d="M68.3243 33.432C62.6273 33.432 59.1173 29.76 59.1173 23.847C59.1173 17.907 62.6273 14.208 68.3243 14.208C73.9943 14.208 77.5043 17.907 77.5043 23.847C77.5043 29.76 73.9943 33.432 68.3243 33.432ZM68.3243 29.895C71.3213 29.895 73.0763 27.627 73.0763 23.847C73.0763 20.067 71.3213 17.745 68.3243 17.745C65.3003 17.745 63.5453 20.04 63.5453 23.847C63.5453 27.627 65.3003 29.895 68.3243 29.895Z" fill="#0A0D12"/>
<path d="M83.4657 19.365C83.4657 23.28 94.2657 19.959 94.2657 27.465C94.2657 31.245 91.1337 33.432 86.8407 33.432C82.4937 33.432 79.3887 31.434 78.7407 27.249H83.3036C83.6546 29.058 84.9237 30.057 86.8677 30.057C88.8117 30.057 89.8377 29.274 89.8377 28.005C89.8377 23.901 79.0107 27.033 79.0107 19.77C79.0107 16.692 81.5757 14.208 86.0847 14.208C89.8917 14.208 93.1857 16.017 93.7527 20.256H89.1357C88.7577 18.447 87.7047 17.583 85.9227 17.583C84.4107 17.583 83.4657 18.285 83.4657 19.365Z" fill="#0A0D12"/>
</svg>
