<svg width="101" height="48" viewBox="0 0 101 48" fill="none" xmlns="http://www.w3.org/2000/svg">
<path d="M13.041 29.4359V32.9999H0V13.6139H12.852V17.1779H4.104V21.2549H12.042V24.7919H4.104V29.4359H13.041Z" fill="#0A0D12"/>
<path d="M19.1588 15.2339C19.1588 16.5029 18.1328 17.4479 16.6478 17.4479C15.1898 17.4479 14.1638 16.5029 14.1638 15.2339C14.1638 13.9109 15.1898 12.9659 16.6478 12.9659C18.1328 12.9659 19.1588 13.9109 19.1588 15.2339ZM18.5648 32.9999H14.8118V18.5819H18.5648V32.9999Z" fill="#0A0D12"/>
<path d="M26.9536 38.4809C23.0656 38.4809 20.4736 36.3749 20.3116 33.0539H23.9296C24.0916 34.7009 25.1446 35.5649 26.9266 35.5649C29.0056 35.5649 30.0856 34.4579 30.0856 32.3789V30.2729C29.3026 31.6499 27.8176 32.4599 26.0626 32.4599C22.5256 32.4599 19.8796 29.4629 19.8796 25.3859C19.8796 21.2009 22.3636 18.3119 25.9276 18.3119C27.8716 18.3119 29.3296 19.0679 30.3826 20.5529V18.5819H33.8116V32.3249C33.8116 36.1589 31.2196 38.4809 26.9536 38.4809ZM23.6326 25.3859C23.6326 27.7349 24.8476 29.2199 26.7916 29.2199C28.7626 29.2199 30.0586 27.6809 30.0586 25.4129C30.0586 23.0639 28.7626 21.5519 26.7916 21.5519C24.8746 21.5519 23.6326 23.0369 23.6326 25.3859Z" fill="#0A0D12"/>
<path d="M39.8716 25.1429V32.9999H36.1186V13.6139H39.8716V20.4719C40.8706 19.1489 42.1126 18.3119 44.0026 18.3119C46.8916 18.3119 48.8896 20.2019 48.8896 23.6849V32.9999H45.1636V24.9539C45.1636 22.8209 44.3266 21.6329 42.6256 21.6329C41.1406 21.6329 39.8716 22.8209 39.8716 25.1429Z" fill="#0A0D12"/>
<path d="M59.902 29.3549V32.6219C58.984 33.0809 58.12 33.2699 57.013 33.2699C54.043 33.2699 52.18 31.5689 52.18 28.3289V21.7949H49.264V18.5819H52.18V14.3159H55.906V18.5819H60.037V21.7949H55.906V27.4649C55.906 29.1389 56.662 29.8139 58.012 29.8139C58.714 29.8139 59.362 29.6519 59.902 29.3549Z" fill="#0A0D12"/>
<path d="M75.6397 25.7909C75.6397 30.0029 73.1287 33.2699 69.2407 33.2699C67.3777 33.2699 65.8117 32.4329 64.7047 30.9209V32.9999H61.2487V13.6139H65.0017V20.4449C66.0547 19.0409 67.5127 18.3119 69.2407 18.3119C73.1287 18.3119 75.6397 21.5249 75.6397 25.7909ZM71.7787 25.7909C71.7787 23.0369 70.2397 21.6329 68.4037 21.6329C66.5947 21.6329 65.0287 23.0099 65.0287 25.7369C65.0287 28.4639 66.5407 29.9219 68.4037 29.9219C70.2397 29.9219 71.7787 28.4909 71.7787 25.7909Z" fill="#0A0D12"/>
<path d="M85.5506 32.9999V31.2179C84.6056 32.5679 83.1746 33.2699 81.2036 33.2699C78.2066 33.2699 76.2085 31.5149 76.2085 28.8149C76.2085 26.0069 78.4766 24.4949 82.6886 24.4949C83.4986 24.4949 84.2006 24.5489 85.0916 24.6569V23.7929C85.0916 22.1729 84.1736 21.2279 82.6076 21.2279C80.9875 21.2279 80.0156 22.1729 79.8806 23.7929H76.5056C76.7216 20.4719 79.1245 18.3119 82.6076 18.3119C86.3876 18.3119 88.6016 20.3909 88.6016 23.9279V32.9999H85.5506ZM79.7456 28.7069C79.7456 29.9219 80.6096 30.6779 82.0135 30.6779C83.9305 30.6779 85.0916 29.6249 85.0916 27.9509V26.9249C84.2006 26.7899 83.5796 26.7359 82.9315 26.7359C80.7985 26.7359 79.7456 27.4109 79.7456 28.7069Z" fill="#0A0D12"/>
<path d="M94.5357 32.9999H90.7557V13.6139H94.5357V32.9999Z" fill="#0A0D12"/>
<path d="M100.601 32.9999H96.8212V13.6139H100.601V32.9999Z" fill="#0A0D12"/>
</svg>
