<svg preserveAspectRatio="none" width="100%" height="100%" overflow="visible" style="display: block;" viewBox="0 0 253 45" fill="none" xmlns="http://www.w3.org/2000/svg">
<g id="faceliftlabs_horixontal 2" clip-path="url(#clip0_0_4)">
<path id="Vector" d="M252.175 0H140.739C140.283 0 139.914 0.402944 139.914 0.9V44.1C139.914 44.5971 140.283 45 140.739 45H252.175C252.63 45 253 44.5971 253 44.1V0.9C253 0.402944 252.63 0 252.175 0Z" fill="var(--fill-0, #00FF88)"/>
<path id="Vector_2" d="M226.438 38.835C221.238 38.835 217.895 35.775 217.771 31.59H223.342C223.384 32.895 224.374 33.705 226.397 33.705C228.584 33.705 229.451 32.76 229.451 31.635C229.451 30.06 227.8 29.88 225.736 29.565C222.765 29.115 218.142 28.44 218.142 23.04C218.142 18.495 221.361 15.435 226.397 15.435C231.432 15.435 234.527 18.585 234.651 22.545H229.162C229.038 21.33 228.048 20.565 226.479 20.565C224.622 20.565 223.796 21.555 223.796 22.68C223.796 24.165 225.447 24.39 227.511 24.705C230.318 25.155 235.064 25.875 235.064 31.275C235.064 35.82 231.68 38.835 226.438 38.835Z" fill="var(--fill-0, #020202)"/>
<path id="Vector_3" d="M204.341 38.835C198.026 38.835 193.486 34.29 193.486 26.91V6.3H199.058V18.855C200.42 16.605 202.648 15.435 205.331 15.435C210.119 15.435 215.36 19.215 215.36 26.865C215.36 34.02 210.82 38.835 204.341 38.835ZM204.382 33.165C207.56 33.165 209.706 30.69 209.706 27.135C209.706 23.58 207.56 21.105 204.382 21.105C201.204 21.105 199.058 23.58 199.058 27.135C199.058 30.69 201.204 33.165 204.382 33.165Z" fill="var(--fill-0, #020202)"/>
<path id="Vector_4" d="M177.539 38.835C172.834 38.835 167.551 35.055 167.551 27.405C167.551 20.25 172.091 15.435 178.571 15.435C184.968 15.435 189.425 20.115 189.425 27.36V38.25H184.307V34.245C183.152 37.26 180.634 38.835 177.539 38.835ZM178.529 33.165C181.707 33.165 183.853 30.69 183.853 27.135C183.853 23.58 181.707 21.105 178.529 21.105C175.351 21.105 173.205 23.58 173.205 27.135C173.205 30.69 175.351 33.165 178.529 33.165Z" fill="var(--fill-0, #020202)"/>
<path id="Vector_5" d="M158.073 38.25V6.3H163.645V38.25H158.073Z" fill="var(--fill-0, #020202)"/>
<path id="Vector_6" d="M131.451 15.0015V20.1151H117.894V15.0015H131.451ZM120.972 9.12078H127.216V32.0043C127.216 32.6329 127.304 33.1229 127.48 33.4745C127.656 33.8154 127.9 34.0551 128.212 34.1936C128.535 34.3321 128.906 34.4013 129.326 34.4013C129.62 34.4013 129.913 34.3747 130.206 34.3215C130.499 34.2575 130.724 34.2096 130.88 34.1776L131.862 39.2433C131.549 39.3498 131.11 39.4724 130.543 39.6108C129.976 39.76 129.288 39.8506 128.477 39.8825C126.972 39.9465 125.653 39.728 124.519 39.2273C123.395 38.7266 122.521 37.9489 121.896 36.8942C121.27 35.8395 120.962 34.5079 120.972 32.8992V9.12078Z" fill="var(--fill-0, #020202)"/>
<path id="Vector_7" d="M116.901 15.0015V20.1151H103.007V15.0015H116.901ZM106.187 39.5469V13.2277C106.187 11.4486 106.505 9.97308 107.14 8.80119C107.785 7.62935 108.665 6.75041 109.778 6.16451C110.892 5.57856 112.157 5.28556 113.574 5.28556C114.532 5.28556 115.406 5.36549 116.198 5.52528C116.999 5.68508 117.595 5.82889 117.986 5.95674L116.872 11.0704C116.628 10.9851 116.325 10.9053 115.963 10.8307C115.612 10.7561 115.25 10.7188 114.879 10.7188C113.96 10.7188 113.32 10.9532 112.959 11.4219C112.597 11.88 112.416 12.5246 112.416 13.3556V39.5469H106.187Z" fill="var(--fill-0, #020202)"/>
<path id="Vector_8" d="M94.7879 39.5469V15.0015H101.032V39.5469H94.7879ZM97.9246 11.8374C96.9964 11.8374 96.1999 11.5019 95.5354 10.8307C94.8808 10.1488 94.5535 9.3339 94.5535 8.3857C94.5535 7.44822 94.8808 6.64389 95.5354 5.97271C96.1999 5.29092 96.9964 4.95 97.9246 4.95C98.8528 4.95 99.644 5.29092 100.299 5.97271C100.963 6.64389 101.295 7.44822 101.295 8.3857C101.295 9.3339 100.963 10.1488 100.299 10.8307C99.644 11.5019 98.8528 11.8374 97.9246 11.8374Z" fill="var(--fill-0, #020202)"/>
<path id="Vector_9" d="M91.0247 6.81966V39.5469H84.781V6.81966H91.0247Z" fill="var(--fill-0, #020202)"/>
<path id="Vector_10" d="M71.6122 40.0263C69.2964 40.0263 67.303 39.515 65.6322 38.4922C63.971 37.4589 62.6912 35.9994 61.7923 34.1137C60.8933 32.2174 60.4439 29.9749 60.4439 27.3861C60.4439 24.8612 60.8933 22.6453 61.7923 20.7383C62.6912 18.8314 63.9566 17.3453 65.5881 16.2799C67.2299 15.2145 69.1548 14.6819 71.3629 14.6819C72.8479 14.6819 74.2305 14.9429 75.5108 15.4649C76.8006 15.9763 77.924 16.7486 78.8815 17.782C79.8489 18.8154 80.6013 20.1151 81.1387 21.6812C81.6761 23.2366 81.9448 25.0583 81.9448 27.1464V29.016H62.9355V24.7973H76.0676C76.0676 23.8172 75.8723 22.9489 75.4815 22.1925C75.0906 21.4362 74.5483 20.8449 73.8545 20.4188C73.1707 19.9819 72.3741 19.7635 71.4653 19.7635C70.5177 19.7635 69.6774 20.0033 68.9448 20.4826C68.2217 20.9514 67.655 21.5853 67.2443 22.3843C66.8341 23.1727 66.624 24.0516 66.6141 25.021V29.032C66.6141 30.2465 66.8192 31.2959 67.2299 32.1801C67.6501 33.0643 68.2411 33.7462 69.0034 34.2256C69.7653 34.7049 70.6691 34.9447 71.7146 34.9447C72.4084 34.9447 73.0435 34.8381 73.6201 34.6251C74.1963 34.412 74.6899 34.0924 75.1001 33.6663C75.5108 33.2401 75.8232 32.7181 76.0383 32.1002L81.8131 32.5157C81.5197 34.0285 80.9187 35.3495 80.0103 36.4788C79.1114 37.5974 77.9483 38.471 76.522 39.0995C75.1051 39.7174 73.4686 40.0263 71.6122 40.0263Z" fill="var(--fill-0, #020202)"/>
<path id="Vector_11" d="M48.5389 40.0263C46.233 40.0263 44.2494 39.4937 42.5882 38.4283C40.9371 37.3523 39.6669 35.8609 38.7777 33.9539C37.8984 32.0469 37.4586 29.8523 37.4586 27.3701C37.4586 24.8559 37.9032 22.6506 38.7924 20.7543C39.6913 18.8474 40.9664 17.3612 42.6179 16.2959C44.2688 15.2199 46.233 14.6819 48.5096 14.6819C50.4737 14.6819 52.1931 15.0707 53.6686 15.8484C55.1441 16.6261 56.3117 17.7181 57.1714 19.1244C58.0315 20.5306 58.5053 22.1819 58.5932 24.0782H52.7012C52.5353 22.853 52.0957 21.8676 51.3821 21.1219C50.6788 20.3655 49.7556 19.9873 48.6123 19.9873C47.6449 19.9873 46.7996 20.2749 46.0765 20.8502C45.3634 21.4148 44.8066 22.2405 44.4058 23.3271C44.0051 24.4138 43.8049 25.7295 43.8049 27.2742C43.8049 28.8403 44.0001 30.1719 44.391 31.2692C44.7917 32.3665 45.3534 33.2028 46.0765 33.7781C46.7996 34.3534 47.6449 34.641 48.6123 34.641C49.3255 34.641 49.9656 34.4813 50.5323 34.1617C51.1085 33.842 51.5827 33.3786 51.9537 32.7714C52.3351 32.1535 52.584 31.4131 52.7012 30.5501H58.5932C58.4954 32.4252 58.0266 34.0764 57.1863 35.504C56.3559 36.9209 55.2077 38.0288 53.7421 38.8278C52.2765 39.6268 50.5418 40.0263 48.5389 40.0263Z" fill="var(--fill-0, #020202)"/>
<path id="Vector_12" d="M22.0838 40.0104C20.6475 40.0104 19.3675 39.7387 18.2438 39.1954C17.1202 38.6414 16.231 37.8264 15.5764 36.7504C14.9315 35.6638 14.609 34.3108 14.609 32.6915C14.609 31.3278 14.8386 30.1826 15.2979 29.2558C15.7571 28.3289 16.3825 27.5832 17.1739 27.0185C17.9654 26.4539 18.8643 26.0278 19.8707 25.7401C20.8869 25.4525 21.9519 25.2501 23.0658 25.1329C24.3751 24.9837 25.4303 24.8452 26.2316 24.7174C27.0328 24.5789 27.6141 24.3765 27.9757 24.1101C28.3372 23.8438 28.518 23.4496 28.518 22.9276V22.8317C28.518 21.8196 28.2249 21.0366 27.6386 20.4826C27.0621 19.9287 26.2413 19.6517 25.1763 19.6517C24.0527 19.6517 23.1586 19.9233 22.4942 20.4667C21.8298 20.9993 21.3901 21.6705 21.1751 22.4802L15.4005 21.9688C15.6936 20.4773 16.2701 19.1883 17.13 18.1016C17.9898 17.0043 19.0988 16.1627 20.4569 15.5768C21.8249 14.9802 23.4078 14.6819 25.2056 14.6819C26.4563 14.6819 27.6532 14.8417 28.7964 15.1613C29.9494 15.4809 30.9705 15.9763 31.8596 16.6474C32.7585 17.3186 33.4669 18.1815 33.9848 19.2362C34.5027 20.2802 34.7616 21.532 34.7616 22.9915V39.5469H28.8404V36.1432H28.6645C28.303 36.9102 27.8194 37.5867 27.2136 38.1726C26.6078 38.7479 25.8798 39.2007 25.0297 39.531C24.1797 39.8506 23.1977 40.0104 22.0838 40.0104ZM23.8719 35.3122C24.7904 35.3122 25.6013 35.1151 26.3049 34.7209C27.0083 34.3161 27.5604 33.7728 27.961 33.091C28.3616 32.4091 28.5619 31.6368 28.5619 30.7738V28.1691C28.3665 28.3076 28.0978 28.4355 27.7558 28.5526C27.4236 28.6592 27.0474 28.7604 26.6273 28.8563C26.2071 28.9415 25.787 29.0214 25.3668 29.0959C24.9467 29.1599 24.5656 29.2185 24.2237 29.2717C23.4908 29.3889 22.8508 29.5754 22.3037 29.831C21.7565 30.0867 21.3314 30.433 21.0286 30.8697C20.7257 31.2959 20.5742 31.8285 20.5742 32.4677C20.5742 33.3946 20.882 34.103 21.4975 34.5931C22.1229 35.0725 22.9143 35.3122 23.8719 35.3122Z" fill="var(--fill-0, #020202)"/>
<path id="Vector_13" d="M13.8943 15.0015V20.1151H0V15.0015H13.8943ZM3.18044 39.5469V13.2277C3.18044 11.4486 3.49799 9.97308 4.1331 8.80119C4.77798 7.62935 5.65738 6.75041 6.77124 6.16451C7.88514 5.57856 9.15047 5.28556 10.5673 5.28556C11.5248 5.28556 12.3993 5.36549 13.1907 5.52528C13.992 5.68508 14.588 5.82889 14.9788 5.95674L13.865 11.0704C13.6207 10.9851 13.3178 10.9053 12.9562 10.8307C12.6045 10.7561 12.243 10.7188 11.8717 10.7188C10.9532 10.7188 10.3132 10.9532 9.95169 11.4219C9.59018 11.88 9.40941 12.5246 9.40941 13.3556V39.5469H3.18044Z" fill="var(--fill-0, #020202)"/>
</g>
<defs>
<clipPath id="clip0_0_4">
<rect width="253" height="45" fill="white"/>
</clipPath>
</defs>
</svg>
