<svg preserveAspectRatio="none" width="100%" height="100%" overflow="visible" style="display: block;" viewBox="0 0 253 45" fill="none" xmlns="http://www.w3.org/2000/svg">
<g id="Facelift Labs Horizontal Vector Logo Elements">
<path id="Vector" d="M252.175 0H140.739C140.283 0 139.914 0.402944 139.914 0.9V44.1C139.914 44.5971 140.283 45 140.739 45H252.175C252.63 45 253 44.5971 253 44.1V0.9C253 0.402944 252.63 0 252.175 0Z" fill="var(--fill-0, #00FF88)"/>
<path id="Vector_2" d="M226.438 38.835C221.237 38.835 217.894 35.775 217.771 31.59H223.342C223.384 32.895 224.374 33.705 226.396 33.705C228.584 33.705 229.451 32.76 229.451 31.635C229.451 30.06 227.8 29.88 225.736 29.565C222.764 29.115 218.142 28.44 218.142 23.04C218.142 18.495 221.361 15.435 226.396 15.435C231.432 15.435 234.527 18.585 234.651 22.545H229.162C229.038 21.33 228.047 20.565 226.479 20.565C224.622 20.565 223.796 21.555 223.796 22.68C223.796 24.165 225.447 24.39 227.511 24.705C230.317 25.155 235.064 25.875 235.064 31.275C235.064 35.82 231.679 38.835 226.438 38.835Z" fill="var(--fill-0, #020202)"/>
<path id="Vector_3" d="M204.34 38.835C198.026 38.835 193.486 34.29 193.486 26.91V6.29999H199.058V18.855C200.42 16.605 202.648 15.435 205.331 15.435C210.119 15.435 215.36 19.215 215.36 26.865C215.36 34.02 210.82 38.835 204.34 38.835ZM204.382 33.165C207.56 33.165 209.706 30.69 209.706 27.135C209.706 23.58 207.56 21.105 204.382 21.105C201.204 21.105 199.058 23.58 199.058 27.135C199.058 30.69 201.204 33.165 204.382 33.165Z" fill="var(--fill-0, #020202)"/>
<path id="Vector_4" d="M177.539 38.835C172.834 38.835 167.551 35.055 167.551 27.405C167.551 20.25 172.091 15.435 178.571 15.435C184.968 15.435 189.425 20.115 189.425 27.36V38.25H184.307V34.245C183.152 37.26 180.634 38.835 177.539 38.835ZM178.529 33.165C181.707 33.165 183.853 30.69 183.853 27.135C183.853 23.58 181.707 21.105 178.529 21.105C175.351 21.105 173.205 23.58 173.205 27.135C173.205 30.69 175.351 33.165 178.529 33.165Z" fill="var(--fill-0, #020202)"/>
<path id="Vector_5" d="M158.073 38.25V6.29999H163.645V38.25H158.073Z" fill="var(--fill-0, #020202)"/>
<path id="Vector_6" d="M131.451 15.0015V20.1151H117.894V15.0015H131.451ZM120.972 9.12077H127.216V32.0043C127.216 32.6329 127.304 33.1229 127.48 33.4745C127.655 33.8154 127.9 34.0551 128.212 34.1936C128.535 34.3321 128.906 34.4013 129.326 34.4013C129.62 34.4013 129.913 34.3747 130.206 34.3214C130.499 34.2575 130.724 34.2096 130.88 34.1776L131.862 39.2433C131.549 39.3498 131.109 39.4724 130.543 39.6108C129.976 39.76 129.287 39.8506 128.476 39.8825C126.972 39.9464 125.652 39.728 124.519 39.2273C123.395 38.7266 122.521 37.9489 121.895 36.8942C121.27 35.8395 120.962 34.5079 120.972 32.8992V9.12077Z" fill="var(--fill-0, #020202)"/>
<path id="Vector_7" d="M116.901 15.0015V20.1151H103.007V15.0015H116.901ZM106.187 39.5469V13.2277C106.187 11.4486 106.505 9.97307 107.14 8.80118C107.785 7.62933 108.664 6.75039 109.778 6.16449C110.892 5.57855 112.157 5.28555 113.574 5.28555C114.532 5.28555 115.406 5.36547 116.198 5.52527C116.999 5.68506 117.595 5.82888 117.986 5.95673L116.872 11.0703C116.628 10.9851 116.325 10.9052 115.963 10.8307C115.611 10.7561 115.25 10.7188 114.878 10.7188C113.96 10.7188 113.32 10.9532 112.958 11.4219C112.597 11.88 112.416 12.5246 112.416 13.3555V39.5469H106.187Z" fill="var(--fill-0, #020202)"/>
<path id="Vector_8" d="M94.7881 39.547V15.0015H101.032V39.547H94.7881ZM97.9248 11.8374C96.9966 11.8374 96.2001 11.5019 95.5356 10.8307C94.881 10.1489 94.5537 9.33391 94.5537 8.38572C94.5537 7.44823 94.881 6.6439 95.5356 5.97273C96.2001 5.29093 96.9966 4.95001 97.9248 4.95001C98.8531 4.95001 99.6443 5.29093 100.299 5.97273C100.963 6.6439 101.296 7.44823 101.296 8.38572C101.296 9.33391 100.963 10.1489 100.299 10.8307C99.6443 11.5019 98.8531 11.8374 97.9248 11.8374Z" fill="var(--fill-0, #020202)"/>
<path id="Vector_9" d="M91.0245 6.81966V39.5469H84.7808V6.81966H91.0245Z" fill="var(--fill-0, #020202)"/>
<path id="Vector_10" d="M71.6122 40.0263C69.2964 40.0263 67.3029 39.515 65.6322 38.4922C63.971 37.4589 62.6911 35.9994 61.7922 34.1137C60.8933 32.2174 60.4438 29.9749 60.4438 27.3861C60.4438 24.8612 60.8933 22.6453 61.7922 20.7383C62.6911 18.8314 63.9565 17.3453 65.588 16.2799C67.2299 15.2146 69.1548 14.6819 71.3629 14.6819C72.8479 14.6819 74.2305 14.9429 75.5108 15.4649C76.8005 15.9763 77.924 16.7486 78.8815 17.782C79.8489 18.8154 80.6013 20.1151 81.1387 21.6812C81.676 23.2366 81.9447 25.0583 81.9447 27.1464V29.0161H62.9355V24.7973H76.0675C76.0675 23.8172 75.8723 22.9489 75.4815 22.1925C75.0906 21.4362 74.5483 20.8449 73.8545 20.4188C73.1706 19.9819 72.3741 19.7636 71.4652 19.7636C70.5176 19.7636 69.6773 20.0033 68.9447 20.4827C68.2216 20.9514 67.655 21.5853 67.2443 22.3843C66.8341 23.1727 66.624 24.0516 66.6141 25.021V29.032C66.6141 30.2465 66.8192 31.2959 67.2299 32.1801C67.65 33.0643 68.241 33.7462 69.0033 34.2256C69.7652 34.705 70.6691 34.9447 71.7145 34.9447C72.4083 34.9447 73.0435 34.8382 73.6201 34.6251C74.1962 34.412 74.6899 34.0924 75.1001 33.6663C75.5108 33.2401 75.8232 32.7181 76.0382 32.1002L81.8131 32.5157C81.5196 34.0285 80.9187 35.3495 80.0103 36.4788C79.1114 37.5974 77.9483 38.471 76.5219 39.0995C75.105 39.7174 73.4686 40.0263 71.6122 40.0263Z" fill="var(--fill-0, #020202)"/>
<path id="Vector_11" d="M48.5387 40.0263C46.2328 40.0263 44.2493 39.4937 42.588 38.4283C40.937 37.3523 39.6667 35.8609 38.7776 33.9539C37.8982 32.0469 37.4585 29.8523 37.4585 27.3701C37.4585 24.8559 37.9031 22.6506 38.7923 20.7543C39.6912 18.8474 40.9663 17.3612 42.6178 16.2959C44.2687 15.2199 46.2328 14.6819 48.5094 14.6819C50.4736 14.6819 52.193 15.0707 53.6685 15.8484C55.1439 16.6261 56.3115 17.7181 57.1712 19.1244C58.0314 20.5306 58.5052 22.1819 58.5931 24.0782H52.701C52.5351 22.853 52.0956 21.8676 51.382 21.1219C50.6787 20.3655 49.7554 19.9873 48.6122 19.9873C47.6447 19.9873 46.7995 20.2749 46.0764 20.8502C45.3632 21.4148 44.8064 22.2405 44.4057 23.3272C44.0049 24.4138 43.8048 25.7295 43.8048 27.2742C43.8048 28.8403 44 30.1719 44.3908 31.2692C44.7916 32.3665 45.3533 33.2029 46.0764 33.7781C46.7995 34.3534 47.6447 34.6411 48.6122 34.6411C49.3254 34.6411 49.9655 34.4813 50.5322 34.1617C51.1083 33.842 51.5825 33.3786 51.9536 32.7714C52.3349 32.1535 52.5838 31.4131 52.701 30.5501H58.5931C58.4953 32.4252 58.0264 34.0764 57.1861 35.504C56.3557 36.9209 55.2075 38.0288 53.7419 38.8279C52.2763 39.6268 50.5417 40.0263 48.5387 40.0263Z" fill="var(--fill-0, #020202)"/>
<path id="Vector_12" d="M22.0837 40.0104C20.6473 40.0104 19.3674 39.7387 18.2437 39.1954C17.12 38.6414 16.2309 37.8264 15.5762 36.7504C14.9313 35.6638 14.6089 34.3108 14.6089 32.6915C14.6089 31.3278 14.8385 30.1826 15.2977 29.2558C15.757 28.3289 16.3823 27.5832 17.1738 27.0185C17.9652 26.4539 18.8641 26.0278 19.8705 25.7401C20.8867 25.4525 21.9517 25.2501 23.0657 25.1329C24.3749 24.9837 25.4302 24.8452 26.2314 24.7174C27.0326 24.5789 27.614 24.3765 27.9755 24.1102C28.337 23.8438 28.5178 23.4496 28.5178 22.9276V22.8317C28.5178 21.8197 28.2247 21.0366 27.6384 20.4827C27.0619 19.9287 26.2412 19.6517 25.1762 19.6517C24.0525 19.6517 23.1585 19.9233 22.494 20.4667C21.8296 20.9993 21.3899 21.6705 21.175 22.4802L15.4003 21.9688C15.6934 20.4773 16.2699 19.1883 17.1298 18.1016C17.9896 17.0043 19.0986 16.1627 20.4568 15.5768C21.8247 14.9802 23.4076 14.6819 25.2055 14.6819C26.4561 14.6819 27.6531 14.8417 28.7963 15.1613C29.9493 15.4809 30.9703 15.9763 31.8595 16.6474C32.7584 17.3186 33.4668 18.1815 33.9846 19.2362C34.5025 20.2802 34.7614 21.532 34.7614 22.9915V39.547H28.8402V36.1432H28.6644C28.3029 36.9102 27.8192 37.5867 27.2134 38.1727C26.6076 38.7479 25.8796 39.2007 25.0296 39.531C24.1795 39.8506 23.1976 40.0104 22.0837 40.0104ZM23.8717 35.3122C24.7902 35.3122 25.6012 35.1151 26.3047 34.7209C27.0082 34.3161 27.5603 33.7728 27.9609 33.091C28.3615 32.4091 28.5618 31.6368 28.5618 30.7738V28.1691C28.3664 28.3076 28.0977 28.4355 27.7557 28.5526C27.4235 28.6592 27.0473 28.7604 26.6271 28.8563C26.207 28.9415 25.7868 29.0214 25.3667 29.0959C24.9466 29.1599 24.5655 29.2185 24.2235 29.2717C23.4907 29.3889 22.8507 29.5754 22.3035 29.831C21.7563 30.0867 21.3313 30.433 21.0284 30.8697C20.7255 31.2959 20.574 31.8286 20.574 32.4677C20.574 33.3946 20.8818 34.103 21.4974 34.5931C22.1227 35.0725 22.9142 35.3122 23.8717 35.3122Z" fill="var(--fill-0, #020202)"/>
<path id="Vector_13" d="M13.8943 15.0015V20.1151H0V15.0015H13.8943ZM3.18044 39.5469V13.2277C3.18044 11.4486 3.49799 9.97307 4.1331 8.80118C4.77798 7.62933 5.65738 6.75039 6.77124 6.16449C7.88514 5.57855 9.15047 5.28555 10.5673 5.28555C11.5248 5.28555 12.3993 5.36547 13.1907 5.52527C13.992 5.68506 14.588 5.82888 14.9788 5.95673L13.865 11.0703C13.6207 10.9851 13.3178 10.9052 12.9562 10.8307C12.6045 10.7561 12.243 10.7188 11.8717 10.7188C10.9532 10.7188 10.3132 10.9532 9.95169 11.4219C9.59018 11.88 9.40941 12.5246 9.40941 13.3555V39.5469H3.18044Z" fill="var(--fill-0, #020202)"/>
</g>
</svg>
