<svg width="115" height="48" viewBox="0 0 115 48" fill="none" xmlns="http://www.w3.org/2000/svg">
<path d="M14.64 33H0V29.58H2.1V16.92H0V13.5H8.85V16.92H6.12V29.58H11.22L11.82 25.8L15.24 26.1L14.64 33Z" fill="#0A0D12"/>
<path d="M17.5685 17.07V13.05H21.4385V17.07H17.5685ZM23.3885 33H15.9185V30.09H17.7185V22.41H15.7685V19.47H21.5885V30.09H23.3885V33Z" fill="#0A0D12"/>
<path d="M39.9734 22.41H38.1734V32.31C38.1734 34.47 37.5634 36.23 36.3434 37.59C35.1234 38.97 33.2434 39.66 30.7034 39.66C29.3034 39.66 27.9634 39.37 26.6834 38.79C25.4034 38.23 24.4734 37.17 23.8934 35.61L26.8634 33.93C27.8234 35.71 29.1134 36.6 30.7334 36.6C31.7734 36.6 32.6234 36.22 33.2834 35.46C33.9634 34.72 34.3034 33.67 34.3034 32.31V30.54C33.9434 31.22 33.4134 31.8 32.7134 32.28C32.0134 32.76 31.0634 33 29.8634 33C28.2834 33 26.9034 32.45 25.7234 31.35C24.5434 30.25 23.9534 28.63 23.9534 26.49C23.9534 24.47 24.4934 22.75 25.5734 21.33C26.6534 19.91 28.1434 19.2 30.0434 19.2C31.1034 19.2 31.9834 19.42 32.6834 19.86C33.3834 20.3 33.9234 20.87 34.3034 21.57V19.47H39.9734V22.41ZM34.3034 26.16V25.83C34.3034 24.71 34.0134 23.84 33.4334 23.22C32.8734 22.58 32.1534 22.26 31.2734 22.26C30.4134 22.26 29.6934 22.58 29.1134 23.22C28.5534 23.86 28.2734 24.87 28.2734 26.25C28.2734 27.55 28.5234 28.49 29.0234 29.07C29.5434 29.65 30.2134 29.94 31.0334 29.94C32.0934 29.94 32.9034 29.56 33.4634 28.8C34.0234 28.04 34.3034 27.16 34.3034 26.16Z" fill="#0A0D12"/>
<path d="M56.8141 33H49.3441V30.09H51.1441V25.38C51.1441 24.22 50.9341 23.39 50.5141 22.89C50.1141 22.39 49.5341 22.14 48.7741 22.14C47.8941 22.14 47.2041 22.41 46.7041 22.95C46.2241 23.49 45.9641 24.2 45.9241 25.08V30.09H47.7241V33H40.2541V30.09H42.0541V15.3H40.2541V12.36H45.9241V21.54C46.8241 19.98 48.2741 19.2 50.2741 19.2C51.5541 19.2 52.6641 19.58 53.6041 20.34C54.5441 21.1 55.0141 22.28 55.0141 23.88V30.09H56.8141V33Z" fill="#0A0D12"/>
<path d="M68.7858 28.8C68.5858 30.36 68.0458 31.5 67.1658 32.22C66.2858 32.94 65.1458 33.3 63.7458 33.3C62.2458 33.3 61.0258 32.93 60.0858 32.19C59.1658 31.43 58.7058 30.35 58.7058 28.95V22.23H56.7858V19.47H58.7058V15.36H62.5758V19.47H67.4358V22.23H62.5758V28.29C62.5758 29.47 63.1158 30.06 64.1958 30.06C64.4358 30.06 64.7558 29.96 65.1558 29.76C65.5758 29.54 65.8458 28.93 65.9658 27.93L68.7858 28.8Z" fill="#0A0D12"/>
<path d="M83.8589 25.92C83.8589 27.92 83.3289 29.65 82.2689 31.11C81.2289 32.57 79.6889 33.3 77.6489 33.3C75.5889 33.3 74.1389 32.52 73.2989 30.96C73.2589 31.3 73.2089 31.64 73.1489 31.98C73.1089 32.32 73.0589 32.66 72.9989 33H69.1289C69.2689 32.3 69.3889 31.6 69.4889 30.9C69.5889 30.2 69.6389 29.51 69.6389 28.83V15.3H67.8389V12.36H73.5089V22.05C73.8689 21.27 74.4089 20.6 75.1289 20.04C75.8689 19.48 76.8489 19.2 78.0689 19.2C79.7689 19.2 81.1589 19.79 82.2389 20.97C83.3189 22.15 83.8589 23.8 83.8589 25.92ZM79.8389 26.25C79.8389 24.95 79.5589 23.96 78.9989 23.28C78.4389 22.6 77.6989 22.26 76.7789 22.26C75.7389 22.26 74.9289 22.64 74.3489 23.4C73.7889 24.16 73.5089 25.04 73.5089 26.04V26.37C73.5089 27.47 73.7789 28.4 74.3189 29.16C74.8789 29.9 75.6689 30.27 76.6889 30.27C77.5689 30.27 78.3089 29.95 78.9089 29.31C79.5289 28.65 79.8389 27.63 79.8389 26.25Z" fill="#0A0D12"/>
<path d="M98.9723 26.25C98.9723 28.39 98.2723 30.1 96.8723 31.38C95.4723 32.66 93.6923 33.3 91.5323 33.3C89.4523 33.3 87.7523 32.7 86.4323 31.5C85.1323 30.28 84.4823 28.58 84.4823 26.4C84.4823 24.42 85.0824 22.72 86.2823 21.3C87.4823 19.88 89.3023 19.17 91.7423 19.17C94.1824 19.17 95.9923 19.88 97.1723 21.3C98.3723 22.7 98.9723 24.35 98.9723 26.25ZM94.9823 26.13C94.9823 24.75 94.6623 23.74 94.0223 23.1C93.3823 22.46 92.6023 22.14 91.6823 22.14C90.6823 22.14 89.8923 22.5 89.3123 23.22C88.7523 23.92 88.4723 24.91 88.4723 26.19C88.4723 27.35 88.7323 28.33 89.2523 29.13C89.7923 29.93 90.5923 30.33 91.6523 30.33C92.6523 30.33 93.4523 29.96 94.0523 29.22C94.6723 28.46 94.9823 27.43 94.9823 26.13Z" fill="#0A0D12"/>
<path d="M114.353 33H107.543V30.09H108.533L106.553 27.96L104.603 30.09H105.473V33H99.1432V30.09H101.003L104.723 26.34L100.643 22.38H99.2932V19.47H106.133V22.38H105.203L107.033 24.39L108.983 22.38H108.083V19.47H113.963V22.38H112.613L108.923 25.92L113.033 30.09H114.353V33Z" fill="#0A0D12"/>
</svg>
