<svg width="129" height="48" viewBox="0 0 129 48" fill="none" xmlns="http://www.w3.org/2000/svg">
<path d="M4.698 11.5401V28.6501H13.166V33.0001H0V11.5401H4.698Z" fill="#0A0D12"/>
<path d="M25.1913 18.5001H29.6573V33.0001H25.4523L25.1623 31.3761C24.2633 32.5651 22.4653 33.3771 20.7253 33.3771C17.4193 33.3771 15.3893 31.1731 15.3893 27.6061V18.5001H19.8553V25.9821C19.8553 28.3601 20.6673 29.4041 22.4943 29.4041C24.4083 29.4041 25.1913 28.4181 25.1913 26.0401V18.5001Z" fill="#0A0D12"/>
<path d="M37.4746 33.0001H33.0086V18.5001H37.1846L37.4746 20.0081C38.1996 18.9931 39.6206 18.0361 41.7086 18.0361C43.8836 18.0361 45.2756 19.0511 46.1166 20.5881C46.8706 19.0511 48.5816 18.0361 50.6696 18.0361C54.4106 18.0361 56.2666 20.2111 56.2666 23.5171V33.0001H51.8006V24.7641C51.8006 22.9371 50.8436 22.0671 49.4226 22.0671C48.1466 22.0671 46.8706 22.7631 46.8706 25.2281V33.0001H42.4046V24.7641C42.4046 22.9661 41.4766 22.0961 40.0556 22.0961C38.7796 22.0961 37.4746 22.7921 37.4746 25.2281V33.0001Z" fill="#0A0D12"/>
<path d="M61.6637 16.2381C60.2427 16.2381 59.1117 15.1071 59.1117 13.6861C59.1117 12.2651 60.2427 11.1631 61.6637 11.1631C63.0557 11.1631 64.1867 12.2651 64.1867 13.6861C64.1867 15.1071 63.0557 16.2381 61.6637 16.2381ZM59.4597 33.0001V18.5001H63.9257V33.0001H59.4597Z" fill="#0A0D12"/>
<path d="M71.7421 33.0001H67.2761V18.5001H71.4811L71.7711 20.0081C72.6702 18.7611 74.3232 18.0361 76.2082 18.0361C79.6591 18.0361 81.6601 20.2401 81.6601 24.0391V33.0001H77.1941V25.1121C77.1941 23.2851 76.1792 22.0961 74.6422 22.0961C72.8732 22.0961 71.7421 23.2561 71.7421 25.0541V33.0001Z" fill="#0A0D12"/>
<path d="M89.2421 33.3771C86.1681 33.3771 84.2541 31.5791 84.2541 28.7371C84.2541 26.0691 86.1391 24.4161 89.6191 24.1551L93.6791 23.8361V23.6041C93.6791 22.1831 92.8091 21.4291 91.2141 21.4291C89.3291 21.4291 88.3141 22.1541 88.3141 23.4591H84.6021C84.6021 20.1821 87.2991 18.0361 91.4461 18.0361C95.6511 18.0361 98.0291 20.3851 98.0291 24.5321V33.0001H94.0851L93.7951 31.0861C93.3311 32.4201 91.4171 33.3771 89.2421 33.3771ZM90.8081 30.0711C92.5191 30.0711 93.7081 29.2301 93.7081 27.5771V26.7941L91.4461 26.9971C89.5031 27.1711 88.8071 27.6061 88.8071 28.5341C88.8071 29.5781 89.4451 30.0711 90.8081 30.0711Z" fill="#0A0D12"/>
<path d="M111.208 18.5001V22.7051H109.787C107.235 22.7051 105.698 23.8361 105.698 26.7071V33.0001H101.232V18.5291H105.437L105.669 20.6751C106.278 19.2541 107.554 18.2971 109.497 18.2971C110.019 18.2971 110.599 18.3551 111.208 18.5001Z" fill="#0A0D12"/>
<path d="M112.731 39.9601V36.2191H115.196C116.704 36.2191 117.342 35.7551 117.922 34.1891L118.183 33.4931L112.354 18.5001H117.139L120.3 27.8091L123.809 18.5001H128.449L121.083 36.1611C119.865 39.1191 118.241 40.3661 115.689 40.3661C114.616 40.3661 113.601 40.2211 112.731 39.9601Z" fill="#0A0D12"/>
</svg>
