<svg width="171" height="48" viewBox="0 0 171 48" fill="none" xmlns="http://www.w3.org/2000/svg">
<path d="M8.127 33.2432C5.463 33.2432 3.438 32.6492 2.052 31.4612C0.684 30.2732 0 28.7252 0 26.8172H4.266C4.302 27.7892 4.626 28.5722 5.238 29.1662C5.868 29.7422 6.885 30.0302 8.289 30.0302C9.369 30.0302 10.233 29.8322 10.881 29.4362C11.529 29.0402 11.853 28.4552 11.853 27.6812C11.853 27.0512 11.718 26.5652 11.448 26.2232C11.178 25.8632 10.71 25.5842 10.044 25.3862C9.378 25.1882 8.451 24.9902 7.263 24.7922C4.995 24.4322 3.285 23.8202 2.133 22.9562C0.981 22.0742 0.405 20.7782 0.405 19.0682C0.405 17.2142 1.089 15.7562 2.457 14.6942C3.825 13.6142 5.706 13.0742 8.1 13.0742C9.648 13.0742 10.98 13.3172 12.096 13.8032C13.212 14.2892 14.076 14.9732 14.688 15.8552C15.318 16.7372 15.633 17.7632 15.633 18.9332H11.394C11.358 17.9792 11.007 17.2952 10.341 16.8812C9.693 16.4672 8.901 16.2602 7.965 16.2602C6.975 16.2602 6.192 16.4672 5.616 16.8812C5.058 17.2772 4.779 17.8262 4.779 18.5282C4.779 19.1402 4.941 19.5992 5.265 19.9052C5.589 20.2112 6.093 20.4452 6.777 20.6072C7.479 20.7692 8.397 20.9492 9.531 21.1472C10.359 21.2732 11.169 21.4442 11.961 21.6602C12.753 21.8762 13.464 22.2002 14.094 22.6322C14.742 23.0462 15.255 23.6312 15.633 24.3872C16.029 25.1252 16.227 26.0882 16.227 27.2762C16.227 29.0402 15.543 30.4802 14.175 31.5962C12.825 32.6942 10.809 33.2432 8.127 33.2432Z" fill="#0A0D12"/>
<path d="M18.41 33.0002V13.3172H22.379V21.1472H22.541C22.937 20.1932 23.549 19.4732 24.377 18.9872C25.205 18.5012 26.132 18.2582 27.158 18.2582C28.13 18.2582 28.994 18.4562 29.75 18.8522C30.524 19.2482 31.136 19.8872 31.586 20.7692C32.036 21.6332 32.261 22.7942 32.261 24.2522V33.0002H28.292V25.1162C28.292 23.8922 28.076 22.9832 27.644 22.3892C27.212 21.7952 26.519 21.4982 25.565 21.4982C24.539 21.4982 23.747 21.8492 23.189 22.5512C22.649 23.2352 22.379 24.0362 22.379 24.9542V33.0002H18.41Z" fill="#0A0D12"/>
<path d="M39.7406 33.2432C38.0666 33.2432 36.7886 32.7572 35.9066 31.7852C35.0246 30.8132 34.5836 29.4002 34.5836 27.5462V18.5282H38.5526V26.4932C38.5526 27.6452 38.7596 28.5272 39.1736 29.1392C39.6056 29.7332 40.3166 30.0302 41.3066 30.0302C42.3146 30.0302 43.0886 29.6882 43.6286 29.0042C44.1866 28.3022 44.4656 27.4742 44.4656 26.5202V18.5282H48.4346V33.0002H44.6276L44.4656 30.3542H44.2766C43.9346 31.2902 43.3496 32.0102 42.5216 32.5142C41.7116 33.0002 40.7846 33.2432 39.7406 33.2432Z" fill="#0A0D12"/>
<path d="M55.9381 33.0002C54.9661 33.0002 54.2101 32.8562 53.6701 32.5682C53.1301 32.2802 52.7521 31.8752 52.5361 31.3532C52.3381 30.8132 52.2391 30.1832 52.2391 29.4632V21.7142H49.6471V18.5282H52.2391V14.5862L56.1811 14.2082V18.5282H61.2571V14.5862L65.1991 14.2082V18.5282H68.1151V21.7142H65.1991V28.7072C65.1991 29.1392 65.2981 29.4272 65.4961 29.5712C65.6941 29.7152 65.9821 29.7872 66.3601 29.7872H68.1151V33.0002H64.9561C63.9841 33.0002 63.2281 32.8562 62.6881 32.5682C62.1481 32.2802 61.7701 31.8752 61.5541 31.3532C61.3561 30.8132 61.2571 30.1832 61.2571 29.4632V21.7142H56.1811V28.7072C56.1811 29.1392 56.2801 29.4272 56.4781 29.5712C56.6761 29.7152 56.9641 29.7872 57.3421 29.7872H59.0971V33.0002H55.9381Z" fill="#0A0D12"/>
<path d="M76.0012 33.2432C74.4892 33.2432 73.1932 32.9372 72.1132 32.3252C71.0512 31.7132 70.2322 30.8582 69.6562 29.7602C69.0802 28.6442 68.7922 27.3482 68.7922 25.8722C68.7922 24.3062 69.0802 22.9562 69.6562 21.8222C70.2502 20.6882 71.0782 19.8152 72.1402 19.2032C73.2022 18.5732 74.4442 18.2582 75.8662 18.2582C77.5402 18.2582 78.9172 18.6272 79.9972 19.3652C81.0772 20.0852 81.8512 21.0842 82.3192 22.3622C82.7872 23.6222 82.9402 25.0532 82.7782 26.6552H72.7072C72.6892 27.8072 72.9862 28.6982 73.5982 29.3282C74.2102 29.9402 75.0112 30.2462 76.0012 30.2462C76.7572 30.2462 77.3962 30.0842 77.9182 29.7602C78.4582 29.4182 78.8002 28.9682 78.9442 28.4102H82.6972C82.5712 29.3822 82.2022 30.2282 81.5902 30.9482C80.9962 31.6682 80.2222 32.2352 79.2682 32.6492C78.3142 33.0452 77.2252 33.2432 76.0012 33.2432ZM75.8662 21.2552C74.9662 21.2552 74.2372 21.5162 73.6792 22.0382C73.1212 22.5422 72.8062 23.2352 72.7342 24.1172H78.8902C78.8362 23.1452 78.5212 22.4252 77.9452 21.9572C77.3872 21.4892 76.6942 21.2552 75.8662 21.2552Z" fill="#0A0D12"/>
<path d="M84.831 33.0002V18.5282H88.4221L88.5841 20.8502H88.719C89.043 19.9142 89.556 19.2662 90.258 18.9062C90.9781 18.5282 91.7971 18.3392 92.715 18.3392H93.525V22.0652H92.634C91.302 22.0652 90.3391 22.3622 89.745 22.9562C89.151 23.5322 88.8361 24.3602 88.8 25.4402V33.0002H84.831Z" fill="#0A0D12"/>
<path d="M96.5495 33.0002V21.7142H94.1735V18.5282H96.5495V16.9892C96.5495 15.8012 96.9185 14.8922 97.6565 14.2622C98.3945 13.6322 99.4385 13.3172 100.788 13.3172H103.704V15.9902H101.949C101.391 15.9902 101.013 16.1072 100.815 16.3412C100.617 16.5752 100.518 16.8722 100.518 17.2322V18.5282H103.461V21.7142H100.518V33.0002H96.5495Z" fill="#0A0D12"/>
<path d="M105.003 33.0002V18.5282H108.594L108.756 20.8502H108.891C109.215 19.9142 109.728 19.2662 110.43 18.9062C111.15 18.5282 111.969 18.3392 112.887 18.3392H113.697V22.0652H112.806C111.474 22.0652 110.511 22.3622 109.917 22.9562C109.323 23.5322 109.008 24.3602 108.972 25.4402V33.0002H105.003Z" fill="#0A0D12"/>
<path d="M119.898 33.2432C118.17 33.2432 116.775 32.6222 115.713 31.3802C114.651 30.1202 114.12 28.2482 114.12 25.7642C114.12 23.2622 114.651 21.3902 115.713 20.1482C116.775 18.8882 118.17 18.2582 119.898 18.2582C121.014 18.2582 121.968 18.5102 122.76 19.0142C123.57 19.5182 124.146 20.1932 124.488 21.0392H124.704L124.866 18.5282H128.673V33.0002H124.704V30.4622H124.488C124.146 31.2902 123.57 31.9652 122.76 32.4872C121.968 32.9912 121.014 33.2432 119.898 33.2432ZM121.41 30.0302C122.148 30.0302 122.751 29.8592 123.219 29.5172C123.705 29.1752 124.065 28.7342 124.299 28.1942C124.533 27.6362 124.65 27.0512 124.65 26.4392V25.0622C124.65 24.4322 124.533 23.8472 124.299 23.3072C124.065 22.7672 123.705 22.3262 123.219 21.9842C122.751 21.6422 122.148 21.4712 121.41 21.4712C120.438 21.4712 119.655 21.8222 119.061 22.5242C118.467 23.2082 118.17 24.2882 118.17 25.7642C118.17 27.2222 118.467 28.3022 119.061 29.0042C119.655 29.6882 120.438 30.0302 121.41 30.0302Z" fill="#0A0D12"/>
<path d="M131.529 33.0002V18.5282H135.363L135.498 21.1472H135.66C136.02 20.1932 136.605 19.4732 137.415 18.9872C138.225 18.5012 139.116 18.2582 140.088 18.2582C141.096 18.2582 142.014 18.5012 142.842 18.9872C143.67 19.4732 144.282 20.3102 144.678 21.4982H144.894C145.236 20.4182 145.839 19.6082 146.703 19.0682C147.585 18.5282 148.575 18.2582 149.673 18.2582C150.609 18.2582 151.446 18.4562 152.184 18.8522C152.922 19.2482 153.507 19.8872 153.939 20.7692C154.389 21.6332 154.614 22.7942 154.614 24.2522V33.0002H150.645V25.1162C150.645 23.8922 150.438 22.9832 150.024 22.3892C149.628 21.7952 148.98 21.4982 148.08 21.4982C147.126 21.4982 146.379 21.8492 145.839 22.5512C145.317 23.2352 145.056 24.0362 145.056 24.9542V33.0002H141.087V25.1162C141.087 23.8922 140.88 22.9832 140.466 22.3892C140.07 21.7952 139.422 21.4982 138.522 21.4982C137.55 21.4982 136.803 21.8492 136.281 22.5512C135.759 23.2352 135.498 24.0362 135.498 24.9542V33.0002H131.529Z" fill="#0A0D12"/>
<path d="M163.675 33.2432C162.163 33.2432 160.867 32.9372 159.787 32.3252C158.725 31.7132 157.906 30.8582 157.33 29.7602C156.754 28.6442 156.466 27.3482 156.466 25.8722C156.466 24.3062 156.754 22.9562 157.33 21.8222C157.924 20.6882 158.752 19.8152 159.814 19.2032C160.876 18.5732 162.118 18.2582 163.54 18.2582C165.214 18.2582 166.591 18.6272 167.671 19.3652C168.751 20.0852 169.525 21.0842 169.993 22.3622C170.461 23.6222 170.614 25.0532 170.452 26.6552H160.381C160.363 27.8072 160.66 28.6982 161.272 29.3282C161.884 29.9402 162.685 30.2462 163.675 30.2462C164.431 30.2462 165.07 30.0842 165.592 29.7602C166.132 29.4182 166.474 28.9682 166.618 28.4102H170.371C170.245 29.3822 169.876 30.2282 169.264 30.9482C168.67 31.6682 167.896 32.2352 166.942 32.6492C165.988 33.0452 164.899 33.2432 163.675 33.2432ZM163.54 21.2552C162.64 21.2552 161.911 21.5162 161.353 22.0382C160.795 22.5422 160.48 23.2352 160.408 24.1172H166.564C166.51 23.1452 166.195 22.4252 165.619 21.9572C165.061 21.4892 164.368 21.2552 163.54 21.2552Z" fill="#0A0D12"/>
</svg>
