<svg width="44" height="44" viewBox="0 0 44 44" fill="none" xmlns="http://www.w3.org/2000/svg">
<path d="M43.7469 29.6875V12.5H10.9344C13.3102 12.4997 15.6475 13.1013 17.7279 14.2487C19.8083 15.3961 21.5641 17.052 22.8314 19.0616C24.0987 21.0713 24.8361 23.3693 24.9749 25.7411C25.1137 28.1129 24.6493 30.4813 23.625 32.625L28.5 37.5H35.9344C38.0064 37.5 39.9935 36.6769 41.4586 35.2118C42.9238 33.7466 43.7469 31.7595 43.7469 29.6875ZM43.7469 7.8125C43.7469 5.7405 42.9238 3.75336 41.4586 2.28823C39.9935 0.8231 38.0064 0 35.9344 0H14.0594C11.9874 0 10.0002 0.8231 8.5351 2.28823C7.06997 3.75336 6.24687 5.7405 6.24687 7.8125V9.375H43.7469V7.8125ZM10.9344 37.5C13.3906 37.5 15.6594 36.6875 17.4844 35.3219L25.4531 43.2906C25.5982 43.4359 25.7705 43.5512 25.9601 43.6299C26.1497 43.7086 26.353 43.7492 26.5583 43.7493C26.7636 43.7495 26.9669 43.7092 27.1566 43.6307C27.3464 43.5523 27.5188 43.4373 27.6641 43.2922C27.8093 43.1471 27.9246 42.9749 28.0033 42.7852C28.082 42.5956 28.1226 42.3923 28.1227 42.187C28.1229 41.9817 28.0826 41.7784 28.0042 41.5887C27.9257 41.3989 27.8107 41.2265 27.6656 41.0812L19.6969 33.1125C21.1719 31.1399 21.9379 28.7272 21.871 26.2651C21.804 23.8029 20.9079 21.4354 19.3278 19.5459C17.7477 17.6565 15.5761 16.3557 13.1646 15.8541C10.7531 15.3526 8.24295 15.6797 6.04053 16.7825C3.83811 17.8853 2.07239 19.6992 1.02928 21.9305C-0.0138422 24.1618 -0.273285 26.6798 0.292955 29.0769C0.859195 31.474 2.21797 33.6099 4.14926 35.1385C6.08055 36.6672 8.47129 37.4993 10.9344 37.5ZM10.9344 34.375C8.86237 34.375 6.87523 33.5519 5.4101 32.0868C3.94497 30.6216 3.12187 28.6345 3.12187 26.5625C3.12187 24.4905 3.94497 22.5034 5.4101 21.0382C6.87523 19.5731 8.86237 18.75 10.9344 18.75C13.0064 18.75 14.9935 19.5731 16.4586 21.0382C17.9238 22.5034 18.7469 24.4905 18.7469 26.5625C18.7469 28.6345 17.9238 30.6216 16.4586 32.0868C14.9935 33.5519 13.0064 34.375 10.9344 34.375Z" fill="currentColor"/>
</svg>
