<svg width="44" height="44" viewBox="0 0 44 44" fill="none" xmlns="http://www.w3.org/2000/svg">
<path d="M8.06273 0.3905C8.32264 0.616986 8.50034 0.92307 8.56817 1.26107C8.636 1.59908 8.59014 1.95003 8.43773 2.25925C8.40998 2.35039 8.39628 2.44523 8.39711 2.5405C8.39711 2.73737 8.44711 3.11237 8.91898 3.58112C9.14711 3.80925 9.32211 3.97175 9.51273 4.14988C9.66898 4.29363 9.83461 4.44362 10.044 4.64987C10.4502 5.03737 10.8784 5.49362 11.2627 6.0655C12.0596 7.26237 12.5002 8.75925 12.5002 10.9374C12.5002 12.1311 12.3034 13.2499 11.944 14.2405C10.9252 17.053 8.63461 18.7499 6.25023 18.7499C3.86586 18.7499 1.57523 17.0499 0.556482 14.2405C0.180675 13.1801 -0.00755474 12.0624 0.000232066 10.9374C0.000232066 9.91862 0.272107 8.703 0.647107 7.58113C1.02211 6.45925 1.54711 5.29363 2.15336 4.35612C2.87523 3.13738 3.89086 2.1155 4.67836 1.428C5.11169 1.0502 5.56216 0.692531 6.02836 0.356125L6.12211 0.293625L6.15023 0.27175L6.15961 0.2655L6.16586 0.262375C6.45241 0.0713642 6.79403 -0.0196284 7.13763 0.00354185C7.48123 0.0267121 7.80755 0.162747 8.06586 0.3905M6.25023 21.8749C8.23513 21.8799 10.1583 21.185 11.6815 19.9124C11.744 20.1082 11.8034 20.3061 11.8596 20.5061C12.5002 22.8561 12.5002 25.7624 12.5002 28.0093V28.1249C12.5002 34.5561 11.2971 38.3749 9.93461 40.6467C9.41836 41.5402 8.7426 42.3315 7.94086 42.9811C7.62194 43.2279 7.27596 43.4376 6.90961 43.6061C6.90961 43.6061 6.51273 43.7499 6.25023 43.7499C6.02495 43.732 5.80314 43.6836 5.59086 43.6061C5.2245 43.4376 4.87852 43.2279 4.55961 42.9811C3.75787 42.3315 3.0821 41.5402 2.56586 40.6467C1.20336 38.378 0.000232066 34.5561 0.000232066 28.1249V28.0124C0.000232066 25.7624 0.000232225 22.8592 0.640857 20.503C0.695024 20.3072 0.754399 20.1092 0.818982 19.9092C2.3409 21.1853 4.26416 21.8835 6.25023 21.8811M18.744 31.1718C17.6608 31.0508 16.5953 30.8044 15.569 30.4374C15.6065 29.6499 15.6252 28.8374 15.6252 27.9999V27.0749C16.594 27.5342 17.644 27.8561 18.744 28.0124V21.8749C18.744 20.2173 19.4025 18.6276 20.5746 17.4555C21.7467 16.2834 23.3364 15.6249 24.994 15.6249H31.1346C30.886 13.897 30.2275 12.2538 29.2141 10.8325C28.2007 9.41115 26.8618 8.25304 25.3093 7.45492C23.7568 6.65681 22.0358 6.24188 20.2902 6.2448C18.5446 6.24773 16.825 6.66843 15.2752 7.47175C15.0297 6.45011 14.6248 5.47355 14.0752 4.578C16.1006 3.57701 18.3374 3.07876 20.5962 3.12541C22.8549 3.17206 25.0692 3.76224 27.0515 4.846C29.0339 5.92976 30.7259 7.47518 31.9844 9.35144C33.2429 11.2277 34.0309 13.3796 34.2815 15.6249H37.4909C39.1485 15.6249 40.7382 16.2834 41.9103 17.4555C43.0824 18.6276 43.7409 20.2173 43.7409 21.8749V34.3749C43.7409 36.0325 43.0824 37.6222 41.9103 38.7943C40.7382 39.9664 39.1485 40.6249 37.4909 40.6249H24.9909C23.3333 40.6249 21.7435 39.9664 20.5714 38.7943C19.3993 37.6222 18.7409 36.0325 18.7409 34.3749L18.744 31.1718ZM34.2846 18.7499C33.9306 21.9209 32.5088 24.8773 30.2526 27.1335C27.9964 29.3897 25.04 30.8115 21.869 31.1655V34.3749C21.869 35.2037 22.1982 35.9985 22.7843 36.5846C23.3703 37.1706 24.1652 37.4999 24.994 37.4999H37.494C38.3228 37.4999 39.1176 37.1706 39.7037 36.5846C40.2897 35.9985 40.619 35.2037 40.619 34.3749V21.8749C40.619 21.0461 40.2897 20.2512 39.7037 19.6652C39.1176 19.0791 38.3228 18.7499 37.494 18.7499H34.2846ZM31.1346 18.7499H24.994C24.1652 18.7499 23.3703 19.0791 22.7843 19.6652C22.1982 20.2512 21.869 21.0461 21.869 21.8749V28.0155C24.2068 27.6786 26.3728 26.594 28.0429 24.9238C29.7131 23.2536 30.7977 21.0877 31.1346 18.7499Z" fill="currentColor"/>
</svg>
