<svg preserveAspectRatio="none" width="100%" height="100%" overflow="visible" style="display: block;" viewBox="0 0 94 94" fill="none" xmlns="http://www.w3.org/2000/svg">
<g id="figma 1" clip-path="url(#clip0_0_6)">
<path id="Vector" d="M15.6667 78.3333C15.6667 74.1783 17.3173 70.1934 20.2553 67.2553C23.1934 64.3173 27.1783 62.6667 31.3333 62.6667H47V78.3333C47 82.4884 45.3494 86.4733 42.4113 89.4113C39.4733 92.3494 35.4884 94 31.3333 94C27.1783 94 23.1934 92.3494 20.2553 89.4113C17.3173 86.4733 15.6667 82.4884 15.6667 78.3333Z" fill="var(--fill-0, #24CB71)"/>
<path id="Vector_2" d="M47 1.94141e-06V31.3333H62.6667C66.8217 31.3333 70.8066 29.6827 73.7447 26.7447C76.6827 23.8066 78.3333 19.8217 78.3333 15.6667C78.3333 11.5116 76.6827 7.52673 73.7447 4.58866C70.8066 1.65059 66.8217 1.94141e-06 62.6667 1.94141e-06L47 1.94141e-06Z" fill="var(--fill-0, #FF7237)"/>
<path id="Vector_3" d="M62.5374 62.6667C66.6925 62.6667 70.6774 61.0161 73.6154 58.078C76.5535 55.1399 78.2041 51.1551 78.2041 47C78.2041 42.8449 76.5535 38.8601 73.6154 35.922C70.6774 32.9839 66.6925 31.3333 62.5374 31.3333C58.3824 31.3333 54.3975 32.9839 51.4594 35.922C48.5213 38.8601 46.8708 42.8449 46.8708 47C46.8708 51.1551 48.5213 55.1399 51.4594 58.078C54.3975 61.0161 58.3824 62.6667 62.5374 62.6667Z" fill="var(--fill-0, #00B6FF)"/>
<path id="Vector_4" d="M15.6667 15.6667C15.6667 19.8217 17.3173 23.8066 20.2553 26.7447C23.1934 29.6827 27.1783 31.3333 31.3333 31.3333H47V1.94141e-06H31.3333C27.1783 1.94141e-06 23.1934 1.65059 20.2553 4.58866C17.3173 7.52673 15.6667 11.5116 15.6667 15.6667Z" fill="var(--fill-0, #FF3737)"/>
<path id="Vector_5" d="M15.6667 47C15.6667 51.1551 17.3173 55.1399 20.2553 58.078C23.1934 61.0161 27.1783 62.6667 31.3333 62.6667H47V31.3333H31.3333C27.1783 31.3333 23.1934 32.9839 20.2553 35.922C17.3173 38.8601 15.6667 42.8449 15.6667 47Z" fill="var(--fill-0, #874FFF)"/>
</g>
<defs>
<clipPath id="clip0_0_6">
<rect width="94" height="94" fill="white"/>
</clipPath>
</defs>
</svg>
