<svg viewBox="0 0 94 94" fill="none" xmlns="http://www.w3.org/2000/svg">
<g id="gemini-color 1">
<path id="Vector" d="M80.746 42.4371C74.2395 39.6672 68.3233 35.6774 63.3168 30.6832C56.3447 23.6971 51.3706 14.9715 48.9113 5.41283C48.8034 4.9883 48.5571 4.61183 48.2113 4.34293C47.8655 4.07403 47.44 3.92805 47.002 3.92805C46.5639 3.92805 46.1384 4.07403 45.7926 4.34293C45.4468 4.61183 45.2005 4.9883 45.0926 5.41283C42.6281 14.9702 37.6532 23.6949 30.6832 30.6832C25.6762 35.6768 19.7602 39.6665 13.254 42.4371C10.7082 43.5338 8.09183 44.415 5.41283 45.0926C4.98569 45.1975 4.60608 45.4427 4.33469 45.7888C4.0633 46.135 3.91581 46.5621 3.91581 47.002C3.91581 47.4418 4.0633 47.869 4.33469 48.2151C4.60608 48.5612 4.98569 48.8064 5.41283 48.9113C8.09183 49.585 10.7003 50.4663 13.254 51.5629C19.7605 54.3328 25.6767 58.3226 30.6832 63.3168C37.6572 70.3036 42.6327 79.0307 45.0926 88.5911C45.1975 89.0182 45.4427 89.3978 45.7888 89.6692C46.135 89.9406 46.5621 90.0881 47.002 90.0881C47.4418 90.0881 47.869 89.9406 48.2151 89.6692C48.5612 89.3978 48.8064 89.0182 48.9113 88.5911C49.585 85.9082 50.4663 83.2997 51.5629 80.746C54.3326 74.2394 58.3224 68.3232 63.3168 63.3168C70.3042 56.3444 79.0312 51.3703 88.5911 48.9113C89.0156 48.8034 89.3921 48.5571 89.661 48.2113C89.9299 47.8655 90.0759 47.44 90.0759 47.002C90.0759 46.5639 89.9299 46.1384 89.661 45.7926C89.3921 45.4468 89.0156 45.2005 88.5911 45.0926C85.9095 44.4179 83.2861 43.5299 80.746 42.4371Z" fill="var(--fill-0, #3186FF)"/>
<path id="Vector_2" d="M80.746 42.4371C74.2395 39.6672 68.3233 35.6774 63.3168 30.6832C56.3447 23.6971 51.3706 14.9715 48.9113 5.41283C48.8034 4.9883 48.5571 4.61183 48.2113 4.34293C47.8655 4.07403 47.44 3.92805 47.002 3.92805C46.5639 3.92805 46.1384 4.07403 45.7926 4.34293C45.4468 4.61183 45.2005 4.9883 45.0926 5.41283C42.6281 14.9702 37.6532 23.6949 30.6832 30.6832C25.6762 35.6768 19.7602 39.6665 13.254 42.4371C10.7082 43.5338 8.09183 44.415 5.41283 45.0926C4.98569 45.1975 4.60608 45.4427 4.33469 45.7888C4.0633 46.135 3.91581 46.5621 3.91581 47.002C3.91581 47.4418 4.0633 47.869 4.33469 48.2151C4.60608 48.5612 4.98569 48.8064 5.41283 48.9113C8.09183 49.585 10.7003 50.4663 13.254 51.5629C19.7605 54.3328 25.6767 58.3226 30.6832 63.3168C37.6572 70.3036 42.6327 79.0307 45.0926 88.5911C45.1975 89.0182 45.4427 89.3978 45.7888 89.6692C46.135 89.9406 46.5621 90.0881 47.002 90.0881C47.4418 90.0881 47.869 89.9406 48.2151 89.6692C48.5612 89.3978 48.8064 89.0182 48.9113 88.5911C49.585 85.9082 50.4663 83.2997 51.5629 80.746C54.3326 74.2394 58.3224 68.3232 63.3168 63.3168C70.3042 56.3444 79.0312 51.3703 88.5911 48.9113C89.0156 48.8034 89.3921 48.5571 89.661 48.2113C89.9299 47.8655 90.0759 47.44 90.0759 47.002C90.0759 46.5639 89.9299 46.1384 89.661 45.7926C89.3921 45.4468 89.0156 45.2005 88.5911 45.0926C85.9095 44.4179 83.2861 43.5299 80.746 42.4371Z" fill="url(#paint0_linear_0_16)"/>
<path id="Vector_3" d="M80.746 42.4371C74.2395 39.6672 68.3233 35.6774 63.3168 30.6832C56.3447 23.6971 51.3706 14.9715 48.9113 5.41283C48.8034 4.9883 48.5571 4.61183 48.2113 4.34293C47.8655 4.07403 47.44 3.92805 47.002 3.92805C46.5639 3.92805 46.1384 4.07403 45.7926 4.34293C45.4468 4.61183 45.2005 4.9883 45.0926 5.41283C42.6281 14.9702 37.6532 23.6949 30.6832 30.6832C25.6762 35.6768 19.7602 39.6665 13.254 42.4371C10.7082 43.5338 8.09183 44.415 5.41283 45.0926C4.98569 45.1975 4.60608 45.4427 4.33469 45.7888C4.0633 46.135 3.91581 46.5621 3.91581 47.002C3.91581 47.4418 4.0633 47.869 4.33469 48.2151C4.60608 48.5612 4.98569 48.8064 5.41283 48.9113C8.09183 49.585 10.7003 50.4663 13.254 51.5629C19.7605 54.3328 25.6767 58.3226 30.6832 63.3168C37.6572 70.3036 42.6327 79.0307 45.0926 88.5911C45.1975 89.0182 45.4427 89.3978 45.7888 89.6692C46.135 89.9406 46.5621 90.0881 47.002 90.0881C47.4418 90.0881 47.869 89.9406 48.2151 89.6692C48.5612 89.3978 48.8064 89.0182 48.9113 88.5911C49.585 85.9082 50.4663 83.2997 51.5629 80.746C54.3326 74.2394 58.3224 68.3232 63.3168 63.3168C70.3042 56.3444 79.0312 51.3703 88.5911 48.9113C89.0156 48.8034 89.3921 48.5571 89.661 48.2113C89.9299 47.8655 90.0759 47.44 90.0759 47.002C90.0759 46.5639 89.9299 46.1384 89.661 45.7926C89.3921 45.4468 89.0156 45.2005 88.5911 45.0926C85.9095 44.4179 83.2861 43.5299 80.746 42.4371Z" fill="url(#paint1_linear_0_16)"/>
<path id="Vector_4" d="M80.746 42.4371C74.2395 39.6672 68.3233 35.6774 63.3168 30.6832C56.3447 23.6971 51.3706 14.9715 48.9113 5.41283C48.8034 4.9883 48.5571 4.61183 48.2113 4.34293C47.8655 4.07403 47.44 3.92805 47.002 3.92805C46.5639 3.92805 46.1384 4.07403 45.7926 4.34293C45.4468 4.61183 45.2005 4.9883 45.0926 5.41283C42.6281 14.9702 37.6532 23.6949 30.6832 30.6832C25.6762 35.6768 19.7602 39.6665 13.254 42.4371C10.7082 43.5338 8.09183 44.415 5.41283 45.0926C4.98569 45.1975 4.60608 45.4427 4.33469 45.7888C4.0633 46.135 3.91581 46.5621 3.91581 47.002C3.91581 47.4418 4.0633 47.869 4.33469 48.2151C4.60608 48.5612 4.98569 48.8064 5.41283 48.9113C8.09183 49.585 10.7003 50.4663 13.254 51.5629C19.7605 54.3328 25.6767 58.3226 30.6832 63.3168C37.6572 70.3036 42.6327 79.0307 45.0926 88.5911C45.1975 89.0182 45.4427 89.3978 45.7888 89.6692C46.135 89.9406 46.5621 90.0881 47.002 90.0881C47.4418 90.0881 47.869 89.9406 48.2151 89.6692C48.5612 89.3978 48.8064 89.0182 48.9113 88.5911C49.585 85.9082 50.4663 83.2997 51.5629 80.746C54.3326 74.2394 58.3224 68.3232 63.3168 63.3168C70.3042 56.3444 79.0312 51.3703 88.5911 48.9113C89.0156 48.8034 89.3921 48.5571 89.661 48.2113C89.9299 47.8655 90.0759 47.44 90.0759 47.002C90.0759 46.5639 89.9299 46.1384 89.661 45.7926C89.3921 45.4468 89.0156 45.2005 88.5911 45.0926C85.9095 44.4179 83.2861 43.5299 80.746 42.4371Z" fill="url(#paint2_linear_0_16)"/>
</g>
<defs>
<linearGradient id="paint0_linear_0_16" x1="27.4167" y1="60.7083" x2="43.0833" y2="47" gradientUnits="userSpaceOnUse">
<stop stop-color="#08B962"/>
<stop offset="1" stop-color="#08B962" stop-opacity="0"/>
</linearGradient>
<linearGradient id="paint1_linear_0_16" x1="31.3333" y1="21.5417" x2="45.0417" y2="43.0833" gradientUnits="userSpaceOnUse">
<stop stop-color="#F94543"/>
<stop offset="1" stop-color="#F94543" stop-opacity="0"/>
</linearGradient>
<linearGradient id="paint2_linear_0_16" x1="13.7083" y1="52.875" x2="68.5417" y2="47" gradientUnits="userSpaceOnUse">
<stop stop-color="#FABC12"/>
<stop offset="0.46" stop-color="#FABC12" stop-opacity="0"/>
</linearGradient>
</defs>
</svg>
