<svg viewBox="0 0 94 94" fill="none" xmlns="http://www.w3.org/2000/svg">
<g id="github 1" opacity="0.7" clip-path="url(#clip0_0_4)">
<path id="Vector" fill-rule="evenodd" clip-rule="evenodd" d="M47 0C72.9675 0 94 20.6643 94 46.1775C93.9961 66.0232 81.1142 83.6482 61.9813 89.9932C59.6313 90.4554 58.75 89.0141 58.75 87.7999C58.75 86.2411 58.8088 81.2787 58.8088 75.1021C58.8088 70.7742 57.34 68.0012 55.6363 66.5598C66.0938 65.4044 77.08 61.4799 77.08 43.757C77.08 38.6771 75.2588 34.5763 72.2625 31.3451C72.7325 30.1897 74.3775 25.4583 71.7925 19.1055C71.7925 19.1055 67.8563 17.8365 58.8675 23.8407C55.0383 22.7976 51.0863 22.2733 47.1175 22.2819C43.1225 22.2819 39.1275 22.8028 35.3675 23.8407C26.3788 17.8952 22.4425 19.1055 22.4425 19.1055C19.8575 25.4583 21.5025 30.1897 21.9725 31.3451C18.9763 34.5763 17.155 38.7358 17.155 43.757C17.155 61.4212 28.0825 65.4044 38.54 66.5598C37.1888 67.7113 35.955 69.7323 35.5438 72.7364C32.8413 73.9506 26.085 75.9089 21.855 68.9255C20.9738 67.539 18.33 64.1354 14.6288 64.1902C10.6925 64.249 13.0425 66.3836 14.6875 67.2492C16.685 68.3458 18.9763 72.4466 19.505 73.7743C20.445 76.3711 23.5 81.3335 35.3088 79.1989C35.3088 83.0686 35.3675 86.7032 35.3675 87.7999C35.3675 89.0141 34.4863 90.4006 32.1363 89.9932C12.9368 83.7148 -0.011742 66.0624 7.9902e-06 46.1814C7.9902e-06 20.6643 21.0325 0 47 0Z" fill="var(--fill-0, black)"/>
</g>
<defs>
<clipPath id="clip0_0_4">
<rect width="94" height="94" fill="white"/>
</clipPath>
</defs>
</svg>
