<svg viewBox="0 0 94 94" fill="none" xmlns="http://www.w3.org/2000/svg">
<g id="Group 1000001768">
<path id="Vector" fill-rule="evenodd" clip-rule="evenodd" d="M36.3075 60.3385L67.5547 36.2806C69.0861 35.0975 71.2755 35.5585 72.0079 37.3903C75.8463 47.0551 74.1308 58.6659 66.4854 66.6376C58.844 74.6093 48.2063 76.3554 38.4852 72.3736L27.8671 77.5018C43.099 88.3578 61.5935 85.6734 73.1516 73.6138C82.3205 64.051 85.1601 51.0164 82.5046 39.2629L82.5281 39.2914C78.678 22.0262 83.4759 15.1234 93.2989 1.01176C93.5339 0.677228 93.7689 0.342693 94 0L81.0711 13.4834V13.4426L36.2958 60.3467M29.8568 66.1847C18.9214 55.292 20.8092 38.4388 30.1348 28.7169C37.0321 21.5244 48.3356 18.587 58.2017 22.9033L68.7963 17.8037C66.5942 16.1165 64.1849 14.7443 61.6327 13.7241C55.2163 10.9886 48.1667 10.2906 41.3705 11.7177C34.5743 13.1449 28.335 16.6335 23.4373 21.7447C13.5164 32.0908 10.3948 48.0016 15.7528 61.5787C19.7557 71.7249 13.1953 78.9011 6.58783 86.1466C4.24175 88.7168 1.89175 91.2829 0 94L29.845 66.1969" fill="var(--fill-0, black)"/>
</g>
</svg>
