<svg preserveAspectRatio="none" width="100%" height="100%" overflow="visible" style="display: block;" viewBox="0 0 94 94" fill="none" xmlns="http://www.w3.org/2000/svg">
<g id="openai 1" clip-path="url(#clip0_0_14)">
<path id="Vector" fill-rule="evenodd" clip-rule="evenodd" d="M36.0529 33.9105V25.0588C36.0529 24.3147 36.3349 23.7546 36.9851 23.3825L54.7785 13.1365C57.2029 11.7383 60.0895 11.0881 63.0701 11.0881C74.2483 11.0881 81.3296 19.7517 81.3296 28.9716C81.3296 29.6257 81.3296 30.3698 81.2356 31.114L62.7881 20.3079C62.2871 19.989 61.7056 19.8196 61.1118 19.8196C60.5179 19.8196 59.9364 19.989 59.4354 20.3079L36.0529 33.9105ZM77.6048 68.3772V47.235C77.6048 45.9308 77.0448 45.0025 75.9246 44.3484L52.5421 30.7458L60.1796 26.367C60.4564 26.1849 60.7804 26.0878 61.1118 26.0878C61.4431 26.0878 61.7671 26.1849 62.0439 26.367L79.8373 36.6169C84.9643 39.5936 88.4109 45.9308 88.4109 52.0799C88.4109 59.1613 84.2201 65.6825 77.6009 68.385L77.6048 68.3772ZM30.5578 49.7534L22.9203 45.2806C22.2663 44.9085 21.9843 44.3484 21.9843 43.6043V23.1044C21.9843 13.1365 29.6218 5.58908 39.9657 5.58908C43.8823 5.58908 47.5131 6.89333 50.5877 9.22375L32.2342 19.8458C31.1179 20.4959 30.5578 21.4281 30.5578 22.7323V49.7495V49.7534ZM47 59.2513L36.0529 53.1022V40.0597L47 33.9105L57.9471 40.0597V53.1022L47 59.2513ZM54.0343 87.5688C50.1177 87.5688 46.4869 86.2685 43.4123 83.9381L61.7658 73.3161C62.8821 72.6659 63.4422 71.7338 63.4422 70.4295V43.4123L71.1737 47.8852C71.8278 48.2573 72.1058 48.8173 72.1058 49.5615V70.0574C72.1058 80.0253 64.3743 87.5688 54.0343 87.5688ZM31.9561 66.7988L14.1588 56.5488C9.03575 53.5683 5.58908 47.235 5.58908 41.0858C5.57701 37.5919 6.60785 34.1738 8.54967 31.2691C10.4915 28.3644 13.2559 26.1052 16.4892 24.7808V46.0208C16.4892 47.3251 17.0493 48.2573 18.1655 48.9113L41.4579 62.4199L33.8204 66.7988C33.5438 66.9813 33.2197 67.0787 32.8883 67.0787C32.5568 67.0787 32.2327 66.9813 31.9561 66.7988ZM30.9299 82.0738C20.4019 82.0738 12.6704 74.1582 12.6704 64.3743C12.6704 63.6302 12.7644 62.886 12.8545 62.1418L31.208 72.756C32.3282 73.4101 33.4444 73.4101 34.5607 72.756L57.9432 59.2513V68.103C57.9432 68.8472 57.669 69.4073 57.0149 69.7793L39.2215 80.0253C36.7971 81.4236 33.9105 82.0738 30.9299 82.0738ZM54.0343 93.1579C59.4024 93.1584 64.6058 91.3046 68.7644 87.9103C72.9231 84.516 75.7817 79.7895 76.8567 74.5302C87.2907 71.8277 94 62.04 94 52.076C94 45.5547 91.2074 39.2215 86.1745 34.6547C86.6406 32.6963 86.9187 30.7419 86.9187 28.7875C86.9187 15.4669 76.1126 5.49508 63.6302 5.49508C61.1157 5.49508 58.6952 5.86717 56.2668 6.70925C51.9193 2.42993 46.0698 0.0218104 39.9696 2.51613e-08C34.601 -0.000249406 29.3972 1.85402 25.2384 5.24909C21.0797 8.64416 18.2214 13.3716 17.1472 18.6316C6.70925 21.3341 0 31.1179 0 41.0858C0 47.611 2.79258 53.9443 7.8255 58.5072C7.35942 60.4655 7.08133 62.4238 7.08133 64.3783C7.08133 77.6988 17.8874 87.6667 30.3698 87.6667C32.8843 87.6667 35.3048 87.2947 37.7332 86.4565C42.0812 90.7375 47.9326 93.1458 54.0343 93.1658V93.1579Z" fill="var(--fill-0, black)"/>
</g>
<defs>
<clipPath id="clip0_0_14">
<rect width="94" height="94" fill="white"/>
</clipPath>
</defs>
</svg>
